# xmcd
#
# Track frame offsets:
# 150
# 15960
# 30585
# 47355
# 68935
#
# Disc length: 1249 seconds
#
#
# Revision: 0
# Processed by: cddbd v1.5.1PL2 Copyright (c) Steve Scherf et al.
# Submitted via: FreeRIP 2.92 
#
DISCID=2f04df05
DTITLE=Only Human - Tyranny of Ignorance
DYEAR=2003
DGENRE=Porn Groove
TTITLE0=Expulsion of Fear
TTITLE1=Living In Truth
TTITLE2=In Harm's Way
TTITLE3=Archaeopteryx
TTITLE4=Tradition of Destruction
EXTD=
EXTT0=
EXTT1=
EXTT2=
EXTT3=
EXTT4=
PLAYORDER=
